<svg width="517" height="146" viewBox="0 0 517 146" fill="none" xmlns="http://www.w3.org/2000/svg">
<g opacity="0.76">
<path d="M36.7819 40.1782H17.7427V115.099H36.7819V40.1782Z" fill="#FF1F55"/>
<path d="M59.3472 40.1782H40.3087V115.099H59.3472V40.1782Z" fill="#FFC702"/>
<path d="M73.4182 41.5191L57.292 51.6428L97.1703 115.101L113.297 104.977L73.4182 41.5191Z" fill="#3D99EE"/>
<path d="M221.976 131.616H16.5244C12.1419 131.616 7.93881 129.876 4.83988 126.778C1.74096 123.681 0 119.48 0 115.1H238.498C238.498 119.48 236.758 123.68 233.659 126.777C230.561 129.875 226.358 131.615 221.976 131.616Z" fill="#6F2A1A"/>
<path d="M225.884 42.9526H134.925V115.099H225.884V42.9526Z" fill="#BDD8F5"/>
<path d="M219.804 50.0393H141.012V107.998H219.804V50.0393Z" fill="#FB4C47"/>
<path d="M180.407 97.6162C190.679 97.6162 199.006 89.2931 199.006 79.026C199.006 68.7589 190.679 60.4358 180.407 60.4358C170.134 60.4358 161.807 68.7589 161.807 79.026C161.807 89.2931 170.134 97.6162 180.407 97.6162Z" fill="#FFC700"/>
<path d="M202.856 107.998H141.012V80.246C151.688 79.842 167.457 81.1398 182.356 89.7003C190.385 94.3121 197.367 100.543 202.856 107.998Z" fill="#1DB776"/>
<path d="M219.801 69.8806V107.999H170.217C173.394 101.367 177.478 95.2083 182.353 89.701C190.817 80.1869 202.893 71.9908 219.801 69.8806Z" fill="#11915B"/>
<path d="M48.2347 145.954H33.4087L35.4566 115.099H46.1868L48.2347 145.954Z" fill="#592A3C"/>
<path d="M205.094 145.954H190.268L192.316 115.099H203.046L205.094 145.954Z" fill="#592A3C"/>
<path d="M516.914 98.9114H305.482V0H516.914V98.9114ZM314.548 89.8522H507.85V9.06164H314.545L314.548 89.8522Z" fill="#925C50"/>
<path d="M507.85 9.06177H314.546V89.8524H507.85V9.06177Z" fill="white"/>
<path d="M357.531 68.818C373.82 65.0036 383.931 48.7132 380.114 32.4325C376.298 16.1518 359.999 6.04582 343.71 9.86023C327.421 13.6746 317.31 29.965 321.127 46.2457C324.943 62.5265 341.242 72.6324 357.531 68.818Z" fill="#FFC700"/>
<path d="M314.546 64.3458L372.01 38.6967C376.588 36.6529 381.637 35.8974 386.614 36.5118C391.59 37.1262 396.303 39.0871 400.246 42.1829L460.975 89.8516H314.548L314.546 64.3458Z" fill="#11915B"/>
<path d="M414.877 53.6687L458.161 39.3656C462.79 37.8361 467.742 37.5621 472.511 38.5715C477.28 39.581 481.696 41.8378 485.306 45.1113L507.849 65.5483V89.8573H460.973L414.877 53.6687Z" fill="#1DB776"/>
</g>
</svg>
