<svg width="427" height="302" viewBox="0 0 427 302" fill="none" xmlns="http://www.w3.org/2000/svg">
<path fill-rule="evenodd" clip-rule="evenodd" d="M210.526 0.655983C209.719 0.529701 208.899 0.468992 208.069 0.468992H23.4663H23.3064C10.5546 0.468178 0.244995 0.467507 0.244995 47.3043V298.357C0.244995 292.047 3.50489 293.815 8.62581 296.594C12.6498 298.777 17.8228 301.584 23.4663 301.584H208.069C209.838 301.584 211.561 301.308 213.216 300.862H394.076C401.921 300.862 409.112 298.064 414.706 295.887C421.824 293.117 426.355 291.353 426.355 297.644V47.3496C426.355 0.654498 412.023 0.655169 394.298 0.655983H394.076H210.526Z" fill="#F5C827"/>
</svg>
