<svg width="317" height="552" viewBox="0 0 317 552" fill="none" xmlns="http://www.w3.org/2000/svg">
<g opacity="0.67">
<path d="M209.055 148.954L190.92 154.999L208.718 143.812C208.573 142.105 208.393 140.384 208.176 138.65L198.6 140.492L207.663 134.882C205.59 121.514 200.975 104.736 194.643 87.6111L159.345 101.235L193.076 83.4499C184.219 60.4415 172.385 37.2644 159.542 21.2798L140.57 34.6709L155.697 16.7419C144.01 3.74365 131.668 -2.87299 120.088 2.24238C106.019 8.45904 101.987 38.6025 106.319 74.95L115.821 74.7814L106.53 76.6396C108.529 92.5471 112.109 109.572 117.133 126.267L153.371 114.036L118.772 131.549C126.425 155.41 137.029 178.244 150.176 195.742L164.464 181.455L152.856 199.19C163.926 212.947 176.684 222.921 190.92 226.684C190.92 226.684 211.064 192.831 209.055 148.954Z" fill="#03673D"/>
<path d="M192.996 226.684C192.996 226.684 213.14 192.831 211.131 148.954L192.996 154.999L210.794 143.812C210.648 142.105 210.469 140.384 210.252 138.65L200.676 140.492L209.739 134.882C207.666 121.514 203.051 104.736 196.719 87.6129L161.421 101.235L195.152 83.4517C186.295 60.4415 174.46 37.2644 161.618 21.2798L142.645 34.6727L157.773 16.7419C146.086 3.74365 133.744 -2.87299 122.164 2.24238C122.164 2.24238 174.839 127.815 191.972 226.385C192.314 226.481 192.653 226.593 192.996 226.684Z" fill="#04AD66"/>
<path d="M181.668 254.274L168.248 257.406L180.504 250.766C179.243 247.165 177.738 243.409 175.928 239.484C172.201 231.411 166.869 222.174 160.692 213.242L148.619 222.416L157.124 208.243C138.399 182.862 113.785 162.341 101.684 182.308C96.7099 190.513 96.3817 203.576 99.8164 218.261L127.284 217.297L100.803 222.151C103.545 232.172 107.947 242.79 113.749 253.042L123.019 248.872L115.032 255.261C121.146 265.642 128.694 275.561 137.398 283.998L156.299 263.381L140.011 286.455C151.46 296.883 164.759 304.709 179.342 307.756C179.342 307.756 192.614 289.14 181.668 254.274Z" fill="#10794D"/>
<path d="M178.26 307.506C178.622 307.588 178.981 307.68 179.345 307.755C179.345 307.755 192.618 289.139 181.671 254.275L168.25 257.406L180.507 250.766C179.246 247.165 177.741 243.409 175.93 239.485C172.205 231.412 166.872 222.175 160.695 213.241L148.622 222.417L157.126 208.244C139.477 184.317 116.597 164.727 103.893 179.28C114.068 193.001 156.941 252.438 178.26 307.506Z" fill="#04AD66"/>
<path d="M140.343 292.605C132.851 285.528 119.483 276.84 103.964 268.854C97.2336 278.798 89.7205 290.028 88.4275 292.488C88.2429 292.927 88.1741 293.078 88.2576 292.852C88.2869 292.768 88.346 292.644 88.4275 292.488C89.5157 289.909 94.7831 276.924 99.0504 266.387C89.7404 261.818 79.8291 257.574 70.0519 254.112L64.7303 279.361L67.182 253.117C36.6919 242.774 8.26335 240.54 4.64257 260.567C3.64176 266.102 5.58261 272.252 9.74223 278.689C21.4286 278.005 38.3339 276.908 38.3339 276.908L13.6875 284.07C22.7267 295.208 37.5762 306.914 54.794 317.611L69.585 288.904L57.4948 319.264C75.6299 330.266 96.1025 340.081 115.034 346.944C116.64 339.864 117.814 334.734 117.814 334.734L118.053 348.015C121.697 349.288 125.273 350.442 128.756 351.471L130.322 345.348L131.349 352.216C148.69 357.079 163.435 358.595 171.883 355.069C171.883 355.069 178.601 328.745 140.343 292.605Z" fill="#007248"/>
<path d="M245.356 103.595C263.626 58.5899 288.616 49.1951 298.828 50.1235C315.762 47.8955 316.652 77.4165 314.98 92.4554H289.358L314.98 97.4684C314.534 121.531 308.11 147.227 304.954 157.067L273.205 150.94L304.954 161.523C296.933 191.824 284.902 219.823 279.889 230.034L247.583 214.995L278.218 233.376L274.319 240.06L265.407 238.389L273.205 242.288C259.392 270.361 233.658 281.835 222.518 284.063C213.161 272.923 210.45 251.572 210.264 242.288L226.974 238.389H210.264C208.482 222.348 213.977 194.572 216.948 182.689L229.759 188.259L217.505 179.904L219.176 174.334L246.469 182.689L221.404 167.093C224.078 151.497 237 120.862 243.127 107.494L260.394 109.722L245.356 103.595Z" fill="#096B42"/>
<path d="M273.474 243.233C259.372 271.021 233.726 282.807 222.666 285.227C239.256 170.754 283.152 80.9585 303.025 50.3701C316.712 52.8587 317.024 80.0944 315.468 93.4013L290.064 92.3644L315.468 97.0304C313.809 124.404 308.556 148.875 306.136 157.689L271.919 150.43L304.581 161.318C296.7 195.328 284.707 221.458 279.695 230.271L248.07 214.718L278.658 233.382L274.511 240.64L265.697 238.567L273.474 243.233Z" fill="#0EA867"/>
<path fill-rule="evenodd" clip-rule="evenodd" d="M205.606 445.193C205.606 445.195 205.606 445.196 204.941 445.151L205.606 445.196C205.583 445.547 205.291 445.819 204.939 445.818C204.587 445.817 204.297 445.542 204.276 445.191C201.708 402.115 184.724 369.149 162.662 344.094C140.941 320.505 115.316 303.137 90.0273 290.374C90.0556 290.328 90.0846 290.281 90.1142 290.234C73.3421 281.894 58.9325 276.651 50.6014 273.62L50.6003 273.619C48.6941 272.926 47.1062 272.348 45.8811 271.875C30.7491 266.856 16.8397 263.367 5.33 260.964C5.34318 260.86 5.35298 260.755 5.36279 260.65C5.37861 260.48 5.39445 260.31 5.42451 260.143C9.01269 240.832 37.3095 243.012 67.6635 253.014L65.3036 277.74C65.3252 277.748 65.3468 277.757 65.3685 277.766L70.5208 253.975C80.255 257.324 90.1234 261.426 99.3955 265.839C95.9493 274.096 91.8525 283.901 89.8592 288.621C90.1824 288.781 90.5064 288.941 90.8314 289.103C93.6641 284.697 99.5563 276.091 104.953 268.282C120.6 276.168 134.078 284.744 141.632 291.729C180.208 327.398 173.454 353.355 173.454 353.355C173.08 353.508 172.689 353.649 172.287 353.779C188.626 375.429 201.004 402.249 204.762 435.325C204.997 429.493 205.255 421.212 205.376 410.913C205.628 389.413 205.284 359.12 202.901 323.953C198.132 253.609 185.203 163.811 152.582 85.8823C152.44 85.5427 152.6 85.1521 152.94 85.0099C153.279 84.8678 153.67 85.0278 153.812 85.3675C186.515 163.492 199.458 253.457 204.231 323.863C206.617 359.071 206.962 389.4 206.709 410.928C206.583 421.692 206.307 430.257 206.063 436.131C205.941 439.069 205.827 441.333 205.743 442.865C205.701 443.63 205.667 444.212 205.643 444.604C205.636 444.735 205.629 444.844 205.623 444.932L205.616 445.046L205.609 445.158L205.607 445.186L205.606 445.193Z" fill="#128E5A"/>
<path d="M131.549 218.15C131.549 218.15 204.94 320.556 204.94 445.151C216.035 227.538 272.437 108.955 272.437 108.955" stroke="#014D2D" stroke-miterlimit="10" stroke-linecap="round" stroke-linejoin="round"/>
<path d="M228.91 410.692H170.044C170.044 410.692 154.195 536.176 205.137 550.741C256.078 565.306 228.91 410.692 228.91 410.692Z" fill="#F52D29"/>
<path d="M239.259 410.692H184.067C184.067 410.692 171.579 536.176 211.716 550.741C275.55 557.931 239.259 410.692 239.259 410.692Z" fill="#F80700"/>
</g>
</svg>
